# xmcd CD database file
#
# Track frame offsets:
#	205
#	13588
#	25458
#	39181
#	58172
#	81957
#	96041
#	118722
#	134558
#	156955
#	169165
#
# Disc length: 2397 seconds
#
# Revision: 0
# Processed by: cddbd v1.4PL0 Copyright (c) Steve Scherf et al.
# Submitted via: Feurio! 1.65 - http://www.feurio.com
#
DISCID=8e095b0b
DTITLE=Patrick Vining and The Blue Sharks - Blues With Bite
DYEAR=1998
DGENRE=blues
TTITLE0=Honey
TTITLE1=Jump Out The Window
TTITLE2=Ain't Got Over It Yet
TTITLE3=Goody Sack
TTITLE4=Gettin' Wise
TTITLE5=Lowdown Dirty Dog
TTITLE6=Give Your Love Away
TTITLE7=Outta Sight
TTITLE8=Cut You Loose
TTITLE9=Don't Mess With Me
TTITLE10=I Hear You Knockin'
EXTD=(c) 1998 Wild Dog Records
EXTT0=
EXTT1=
EXTT2=
EXTT3=
EXTT4=
EXTT5=
EXTT6=
EXTT7=
EXTT8=
EXTT9=
EXTT10=
PLAYORDER=
